<svg id="Layer_1" data-name="Layer 1" xmlns="http://www.w3.org/2000/svg" xmlns:xlink="http://www.w3.org/1999/xlink" viewBox="0 0 1164.98 304.06"><defs><style>.cls-1{fill:none;}.cls-2{clip-path:url(#clip-path);}.cls-3{fill:#e30613;}.cls-4{clip-path:url(#clip-path-2);}.cls-5{fill:url(#radial-gradient);}.cls-6{clip-path:url(#clip-path-3);}.cls-7{fill:url(#radial-gradient-2);}.cls-8{clip-path:url(#clip-path-4);}.cls-9{fill:url(#radial-gradient-3);}.cls-10{clip-path:url(#clip-path-5);}.cls-11{fill:url(#radial-gradient-4);}.cls-12{clip-path:url(#clip-path-6);}.cls-13{fill:url(#radial-gradient-5);}.cls-14{clip-path:url(#clip-path-7);}.cls-15{fill:url(#radial-gradient-6);}.cls-16{clip-path:url(#clip-path-8);}.cls-17{fill:url(#radial-gradient-7);}.cls-18{clip-path:url(#clip-path-9);}.cls-19{fill:url(#radial-gradient-8);}.cls-20{clip-path:url(#clip-path-10);}.cls-21{fill:url(#radial-gradient-9);}.cls-22{clip-path:url(#clip-path-11);}.cls-23{fill:url(#radial-gradient-10);}.cls-24{clip-path:url(#clip-path-12);}.cls-25{fill:url(#radial-gradient-11);}.cls-26{clip-path:url(#clip-path-13);}.cls-27{fill:url(#radial-gradient-12);}.cls-28{clip-path:url(#clip-path-14);}.cls-29{fill:url(#radial-gradient-13);}.cls-30{fill:url(#radial-gradient-14);}.cls-31{clip-path:url(#clip-path-16);}.cls-32{fill:url(#radial-gradient-15);}.cls-33{clip-path:url(#clip-path-17);}.cls-34{fill:url(#radial-gradient-16);}.cls-35{clip-path:url(#clip-path-18);}.cls-36{fill:url(#radial-gradient-17);}.cls-37{clip-path:url(#clip-path-19);}.cls-38{clip-path:url(#clip-path-20);}.cls-39{fill:url(#radial-gradient-18);}.cls-40{clip-path:url(#clip-path-21);}.cls-41{fill:url(#radial-gradient-19);}.cls-42{clip-path:url(#clip-path-22);}.cls-43{fill:url(#radial-gradient-20);}.cls-44{clip-path:url(#clip-path-23);}.cls-45{fill:url(#radial-gradient-21);}.cls-46{fill:url(#radial-gradient-22);}.cls-47{clip-path:url(#clip-path-26);}.cls-48{fill:url(#radial-gradient-24);}.cls-49{clip-path:url(#clip-path-27);}.cls-50{fill:url(#radial-gradient-25);}.cls-51{clip-path:url(#clip-path-28);}.cls-52{fill:url(#radial-gradient-26);}.cls-53{clip-path:url(#clip-path-29);}.cls-54{fill:url(#radial-gradient-27);}.cls-55{clip-path:url(#clip-path-30);}.cls-56{fill:url(#radial-gradient-28);}.cls-57{clip-path:url(#clip-path-31);}.cls-58{fill:url(#radial-gradient-29);}.cls-59{clip-path:url(#clip-path-32);}.cls-60{fill:url(#radial-gradient-30);}.cls-61{clip-path:url(#clip-path-33);}.cls-62{fill:url(#radial-gradient-31);}.cls-63{clip-path:url(#clip-path-34);}.cls-64{fill:url(#radial-gradient-32);}.cls-65{clip-path:url(#clip-path-35);}.cls-66{fill:url(#radial-gradient-33);}.cls-67{clip-path:url(#clip-path-36);}.cls-68{fill:url(#radial-gradient-34);}.cls-69{fill:url(#radial-gradient-35);}.cls-70{clip-path:url(#clip-path-38);}.cls-71{fill:url(#radial-gradient-36);}.cls-72{clip-path:url(#clip-path-39);}.cls-73{clip-path:url(#clip-path-40);}.cls-74{fill:url(#radial-gradient-37);}.cls-75{clip-path:url(#clip-path-41);}.cls-76{fill:url(#radial-gradient-38);}.cls-77{clip-path:url(#clip-path-42);}.cls-78{fill:url(#radial-gradient-39);}.cls-79{clip-path:url(#clip-path-43);}.cls-80{fill:url(#radial-gradient-40);}</style><clipPath id="clip-path" transform="translate(-18.55 -24.46)"><rect class="cls-1" x="18.55" y="24.46" width="1174.35" height="304.06"/></clipPath><clipPath id="clip-path-2" transform="translate(-18.55 -24.46)"><path class="cls-1" d="M241,274.69a6.17,6.17,0,0,1,.52,2.65l1.73-1.49a6.89,6.89,0,0,1,0,1.31c.26-.82.47-1.62.74-2.46a3.93,3.93,0,0,1-1.34.3l-1.82-2.13s-.4,1.19.13,1.82"/></clipPath><radialGradient id="radial-gradient" cx="-41.93" cy="5709.81" r="1" gradientTransform="matrix(100.3, -16.56, -3.19, -90.42, 22552.56, 515847.27)" gradientUnits="userSpaceOnUse"><stop offset="0" stop-color="#f3997b"/><stop offset="0.07" stop-color="#f3997b"/><stop offset="0.07" stop-color="#f39c7e"/><stop offset="0.11" stop-color="#f7b8a3"/><stop offset="0.14" stop-color="#facfc0"/><stop offset="0.18" stop-color="#fbdfd5"/><stop offset="0.22" stop-color="#fde9e1"/><stop offset="0.25" stop-color="#fdece5"/><stop offset="0.28" stop-color="#fbddd4"/><stop offset="0.34" stop-color="#f6b6a7"/><stop offset="0.42" stop-color="#ee7760"/><stop offset="0.5" stop-color="#e63312"/><stop offset="0.61" stop-color="#d52b0f"/><stop offset="0.84" stop-color="#a91608"/><stop offset="0.9" stop-color="#9c1006"/><stop offset="1" stop-color="#770f00"/></radialGradient><clipPath id="clip-path-3" transform="translate(-18.55 -24.46)"><path class="cls-1" d="M148.75,261.38v.06h0v-.06m0,0h0m0,0c0-.44,0-.88,0-1.32q0,.66,0,1.32m.48-6.77a46.93,46.93,0,0,0-.45,5.45,47.62,47.62,0,0,1,.65-6.58c-.07.37-.14.76-.2,1.13m.2-1.13c.08-.5.18-1,.29-1.45s.15-.72.22-1.09a49.18,49.18,0,0,1,6.81-16.09,48.71,48.71,0,0,0-7.32,18.63m7.32-18.63h0m0,0,.07-.11-.07.11m.07-.11s0,0,0,0,0,0,0,0m0,0,.05-.09-.05.09m.05-.09a.83.83,0,0,0,.08-.12.83.83,0,0,1-.08.12m.08-.12h0m0,0,.15-.23-.15.23M159.69,275a10.43,10.43,0,0,1-1.05-1.27,2.61,2.61,0,0,1,.54,0,2,2,0,0,1,.94.21c.51.33,1.79,2.12,3,2.66s1,2.13,1,2.13l-1.89-.65L162,276.6l-1.38.1a5.76,5.76,0,0,0-.94-1.7M170,253.16a29.89,29.89,0,0,1,2.23-3l0-.31,1.24,3.81L172,254.76s-2.14-1.17-2-1.6m25.35-4.23s1.14-.22,1.06-1.28a19.47,19.47,0,0,0-.32-2l.73-1.88a5.3,5.3,0,0,1,2.14,1c.51.64-1,3.92-1.81,4.55a.93.93,0,0,1-.59.2,1.94,1.94,0,0,1-1.21-.61m4.66-5s.42-1.25-.09-1.45-.45-3.73-.45-3.73,2.31-.94,2.64-.1.44.64-.42,1.81-.58,1.39.33,1.89,2.15,2.86,2.56,3.94A3.93,3.93,0,0,0,206,248l-.76,1.9a23.91,23.91,0,0,0-4.46,1.49c-.92.63-1.37,0-1.37,0L202,249l-1.69-.31-.21-1.37a2,2,0,0,0,1.46-1.48c.2-1.19,0-2-.47-1.94a2.65,2.65,0,0,1-.54.05,3,3,0,0,1-.56-.05m-4.14-30.87a6.41,6.41,0,0,0-.84,1.52c-.43,1.38,2.12,1.93-.43,3.38s-4.14,1.61-3.07,2.46,1.7,3.39,1.37,3.7-2.44-2.11-2.44-2.11l-.71,2,2.51,1.05s-7.21,3.84-8.78,6.29a43.74,43.74,0,0,0-3.3,7.73l-1.06-.12a4.08,4.08,0,0,0-1.16-2.74c-1.17-1.08-.85-7.85.75-10.08s2.64-4.78,1.7-5.09-2.22.84-2.22.84,3-4,2-5.08a2.57,2.57,0,0,0-.58-.45,49.8,49.8,0,0,0-7.53,3.74,15.22,15.22,0,0,0,.28,3.49c.42,2.25-.12,2.55-.12,2.55l1.28,1.49a16.81,16.81,0,0,1-1.51,5.61c-1.25,2.57-1.78,2.25-1.78,2.25a22.87,22.87,0,0,0-2.68-4c-1-1.05,1.83-1.71,2.59-4.56s-1.81-2.12-2.13-2-.95,3-1.69,3.7-4.48,5.42-5.65,7.11-1.58,4.67,0,6.58,1.7,5.8,1.7,5.8a17.49,17.49,0,0,1,1.71-3.39c1.27-2,1.58-8.07,1.58-8.07l2.22-1.57s.34,5.62.34,5.92,2.34-3.27,2.34-3.27a35.28,35.28,0,0,0,.53,5.42c.42,1.78,1.15,4.55,1.15,4.55a17.34,17.34,0,0,1-1.36,2.53c-.74,1.08-2.55.13-2.55.13a11.31,11.31,0,0,0-3.38,3c-1.19,1.7,2.52-.54,2.52-.54l1.48,3.29-1.89,1.4a1.54,1.54,0,0,0-.54-1.3c-.64-.52-1.7,1.09-1.8,1.49s.1,1.6-1.29,2.11-1.48,5.22-2.63,6.07-1.37,5.42-1.37,5.88c0-.32,0-2.56-3.33-4.63-3.45-2.2-.1,7.53-.1,7.53s1.19-.51,1.1.22a4.65,4.65,0,0,0,1.46,3.49c1.17,1.07,1.7,4.88,1.7,4.88l-.22,1.38s-3.05-5.71-5.29-7.84-3.27-9.22-4.12-12.83c-.46-2-.33.34-.2,2.64.11,1.91.21,3.82,0,3.3a30.28,30.28,0,0,1-1.62-8.37v.1a48.42,48.42,0,0,0,18.08,37.8c-1.14-2-4.85-6.64-5.85-8.87-1.17-2.55,1.47-8.57,1.47-8.57l4.16,2.4a9.33,9.33,0,0,0,1.12,2.79c1,1.58,4,3.48,4,3.48s-1.07,1.7-.12,2.68,1.92,1.15,3.62,1.37,2,2.13,2.33,4.33-1.49,3.62-3.07,4.26a1.35,1.35,0,0,0-.74.78,48.2,48.2,0,0,0,23.6,6.11A49.34,49.34,0,0,0,211.56,308a8.21,8.21,0,0,0,2.44-3.07c.32-1.71-2.79-3.52-3.1-3.84s.74-1.16.74-1.16,1-2.55.4-2.32a16.33,16.33,0,0,1-5.17-.23,15,15,0,0,0-4.76.63,17.18,17.18,0,0,1-3.94.65c-1.38-.22-5.51-2.67-5.51-3.71s-2.54-3.52-2.54-3.52a17.31,17.31,0,0,0,.62-3.17,42.88,42.88,0,0,1,1.37-7.31c.55-1.07,3.81-2.75,4.35-5.3s4.13-5.08,6.16-5.83,10.91-1.59,11.79-1.48-.31,1.82-.41,2.95,4.72,3.72,6.35,3.61,3.28-2.12,3.28-2.12l6.39.55a37,37,0,0,1,1.88,3.38c.5,1.16,2.77,9.21,3.4,10.07a1.87,1.87,0,0,1,.07,1.9,7.43,7.43,0,0,0,1.49-.64,19.67,19.67,0,0,0,2.24-2,4.48,4.48,0,0,1-.39.85,48.88,48.88,0,0,0,3-5.73,10.15,10.15,0,0,1-.84,1.27,17.53,17.53,0,0,1-4.32,4.15,6.46,6.46,0,0,1-.1-1.81c.1-.95-.86-2.54-1.79-4.52s-1.54-4.52-.91-5.06l-1.46,1-1-2.75a7.35,7.35,0,0,0,2.42-2.34,8.23,8.23,0,0,0,.39-3.49s-.58.09-3.48.63-2.66-1.59-3.17-2.66.51-1.27.42-2.42-2.66.41-3.3,1.9,1.39,1.39,1.39,1.39a1.16,1.16,0,0,1-.75.83c-.64.22-1.89-2.1-2.63-3s0-2-2-3.25a12.23,12.23,0,0,1-3.39-3.83s-1.19.84-1,1.25a5.68,5.68,0,0,0,2.49,3.5c1.9,1.27,2.1,2.13,2.1,2.13l-.64.54s-.39-.21-.63.31-1.05,2-1.05,2l-.52-.32s.91-1.9.1-3a11.12,11.12,0,0,0-5.15-3c-2.32-.76-3.15-.76-5.37,1s-3.93,5.52-5.51,6.7-4.76.23-4.76.23-.11-2.24-.2-4.58.09-2,.09-2,3.79-1.29,5.95-2.14.83-1.38.62-3-2.61-2-2.61-2l-.17-.85a9.25,9.25,0,0,0,2.48-.85c.75-.54-.32-1-.32-1a11,11,0,0,0,2.64-.85c1.79-.73,2.12-2.44,3.08-4.12.55-1,.55-.89.88-.77a1.85,1.85,0,0,0,1.36-.09c1.84-.62,1.45-.95,1.45-.95l-1-2.65s-.53-.54.61-1.93,1.31,1.21.83,2,.57,2.22.89,2.45a7.69,7.69,0,0,0,4.16-.44c1-.64,1.87-.42,3.3-.84s.19-3.5,1.37-3.7,1.8-2.56,2.63-3.4,2.75-.62,2.75-.62l-1.17-1.3a30.34,30.34,0,0,1-3.47.77c-1.1.11-2-1.61-1.71-3.82a7.72,7.72,0,0,1,1.5-3.62s-.32-1.9-1.07-1.79-2.32,1.25-2.76,6.33c-.42,4.45.15,4,.26,3.78a19.74,19.74,0,0,0-1.85,4.42c-.53,2.21-1.32,2-1.32,2l-.7.22s-1-1.07-.6-1.8-.76-1.07-.89-2.54-1.06-3.39-1.4-2.64a8,8,0,0,1-1.15,1.69l-2.24-.44a7.28,7.28,0,0,0-.09-2.55c-.32-.93-.83-2.54-.83-2.54l1.58-2.43a6.51,6.51,0,0,0,2-1.16c1.09-.86,2.69-6.14,3.45-7.42s2.53-2.4,5.48-1.45,10.23,7.37,10.23,7.37l-.46.84-2.64-1.78,1.69,3.5a3.44,3.44,0,0,0,2.7.43c.73-.1.81-.83.64-1.66A48.43,48.43,0,0,0,197.3,213c-.5,0-1,0-1.46,0"/></clipPath><radialGradient id="radial-gradient-2" cx="-42.14" cy="5710.02" r="1" gradientTransform="matrix(99.81, -16.47, -3.18, -89.97, 22463.5, 513303.49)" xlink:href="#radial-gradient"/><clipPath id="clip-path-4" transform="translate(-18.55 -24.46)"><path class="cls-1" d="M245.85,261.54a48.26,48.26,0,0,0-2.3-14.82,48.26,48.26,0,0,1,2.3,14.82"/></clipPath><radialGradient id="radial-gradient-3" cx="-42.23" cy="5710.11" r="1" gradientTransform="matrix(99.58, -16.44, -3.17, -89.77, 22422.71, 512147.31)" xlink:href="#radial-gradient"/><clipPath id="clip-path-5" transform="translate(-18.55 -24.46)"><path class="cls-1" d="M165.51,224.87a4.65,4.65,0,0,0-.2.65c-.1.31-.21,2.19-.21,2.19s1.36-2.55,2.21-4.34c-.59.49-1.2,1-1.8,1.5"/></clipPath><radialGradient id="radial-gradient-4" cx="-42.24" cy="5710.11" r="1" gradientTransform="matrix(99.57, -16.43, -3.17, -89.76, 22420.51, 512090.93)" xlink:href="#radial-gradient"/><clipPath id="clip-path-6" transform="translate(-18.55 -24.46)"><path class="cls-1" d="M162.3,227.9a.31.31,0,0,0,.37.15c.45-.13.86-.85,1.26-1.76-.55.51-1.07,1.05-1.63,1.61"/></clipPath><radialGradient id="radial-gradient-5" cx="-41.81" cy="5709.7" r="1" gradientTransform="matrix(100.59, -16.6, -3.2, -90.68, 22604.33, 517301.57)" xlink:href="#radial-gradient"/><clipPath id="clip-path-7" transform="translate(-18.55 -24.46)"><path class="cls-1" d="M199.44,238.74s-.1,3.52.45,3.73.09,1.45.09,1.45a2.84,2.84,0,0,0,1.09,0c.48-.09.68.74.48,1.94a2,2,0,0,1-1.46,1.48l.21,1.37,1.7.31-2.56,2.34s.45.63,1.37,0a23.91,23.91,0,0,1,4.46-1.49L206,248a3.93,3.93,0,0,1-1.48-1.69c-.41-1.08-1.59-3.4-2.55-3.94s-1.19-.73-.34-1.89.75-1,.42-1.81c-.1-.26-.39-.35-.74-.35a6.41,6.41,0,0,0-1.9.45"/></clipPath><radialGradient id="radial-gradient-6" cx="-42.04" cy="5709.93" r="1" gradientTransform="matrix(100.02, -16.51, -3.18, -90.17, 22502.76, 514420.18)" xlink:href="#radial-gradient"/><clipPath id="clip-path-8" transform="translate(-18.55 -24.46)"><path class="cls-1" d="M199.44,238.75s-.1,3.51.45,3.72.09,1.45.09,1.45a2.88,2.88,0,0,0,1.1,0c.47-.09.67.74.47,1.94a2,2,0,0,1-1.46,1.48l.21,1.37L202,249l-2.55,2.34s.45.63,1.37,0a23.91,23.91,0,0,1,4.46-1.49L206,248a3.93,3.93,0,0,1-1.48-1.69c-.41-1.08-1.59-3.4-2.56-3.94s-1.18-.73-.33-1.89.75-1,.42-1.81c-.1-.26-.39-.35-.74-.35a6.3,6.3,0,0,0-1.9.46"/></clipPath><radialGradient id="radial-gradient-7" cx="-47.57" cy="5701.88" r="1" gradientTransform="matrix(91.12, 0, 0, -91.12, 4505.09, 519792.9)" gradientUnits="userSpaceOnUse"><stop offset="0" stop-color="#fcd9ca"/><stop offset="0.06" stop-color="#fbd2c4"/><stop offset="0.13" stop-color="#f9c0b4"/><stop offset="0.23" stop-color="#f5a199"/><stop offset="0.33" stop-color="#f07674"/><stop offset="0.44" stop-color="#ea4045"/><stop offset="0.55" stop-color="#e30613"/><stop offset="0.61" stop-color="#ca0e15"/><stop offset="0.7" stop-color="#a81817"/><stop offset="0.75" stop-color="#9b1c18"/><stop offset="1" stop-color="#9b1c18"/></radialGradient><clipPath id="clip-path-9" transform="translate(-18.55 -24.46)"><path class="cls-1" d="M179.57,216.35A48.67,48.67,0,0,1,195.84,213a48.67,48.67,0,0,0-16.27,3.31"/></clipPath><radialGradient id="radial-gradient-8" cx="-47.83" cy="5702.06" r="1" gradientTransform="matrix(90.62, 0, 0, -90.62, 4505.13, 516979.1)" xlink:href="#radial-gradient-7"/><clipPath id="clip-path-10" transform="translate(-18.55 -24.46)"><path class="cls-1" d="M179.57,216.35a2.57,2.57,0,0,1,.58.45c1,1.07-2,5.08-2,5.08s1.24-1.15,2.21-.84-.09,2.86-1.69,5.09-1.92,9-.75,10.08a4.08,4.08,0,0,1,1.16,2.74l1.06.12a43.26,43.26,0,0,1,3.31-7.73c1.57-2.45,8.77-6.29,8.77-6.29L189.72,224l.71-2s2.12,2.44,2.44,2.11-.32-2.86-1.37-3.7.53-.93,3.06-2.46,0-2,.44-3.38a6.65,6.65,0,0,1,.84-1.53,48.67,48.67,0,0,0-16.27,3.31"/></clipPath><radialGradient id="radial-gradient-9" cx="-42.14" cy="5710.02" r="1" gradientTransform="matrix(99.79, -16.47, -3.18, -89.95, 22459.96, 513202.29)" xlink:href="#radial-gradient"/><clipPath id="clip-path-11" transform="translate(-18.55 -24.46)"><path class="cls-1" d="M179.57,216.35a2.82,2.82,0,0,1,.58.45c1,1.06-2,5.08-2,5.08s1.24-1.15,2.22-.84-.1,2.86-1.7,5.09-1.92,9-.75,10.08a4.08,4.08,0,0,1,1.16,2.74l1.06.12a43.74,43.74,0,0,1,3.3-7.73c1.57-2.45,8.78-6.29,8.78-6.29L189.72,224l.71-2s2.12,2.44,2.44,2.11-.32-2.86-1.37-3.7.53-.93,3.06-2.46,0-2,.43-3.38a6.88,6.88,0,0,1,.85-1.52,48.42,48.42,0,0,0-16.27,3.3"/></clipPath><radialGradient id="radial-gradient-10" cx="-47.68" cy="5701.96" r="1" gradientTransform="matrix(90.91, 0, 0, -90.91, 4505.12, 518591.51)" xlink:href="#radial-gradient-7"/><clipPath id="clip-path-12" transform="translate(-18.55 -24.46)"><path class="cls-1" d="M219.56,236.75l.05,0-.05,0"/></clipPath><radialGradient id="radial-gradient-11" cx="-62.35" cy="5729.55" r="1" gradientTransform="matrix(67.45, -11.13, -2.15, -60.8, 16717.31, 347946)" xlink:href="#radial-gradient"/><clipPath id="clip-path-13" transform="translate(-18.55 -24.46)"><path class="cls-1" d="M219.57,236.75l0,0,0,0"/></clipPath><radialGradient id="radial-gradient-12" cx="-25.21" cy="5686.56" r="1" gradientTransform="matrix(171.97, 0, 0, -171.97, 4468.35, 978138.91)" xlink:href="#radial-gradient-7"/><clipPath id="clip-path-14" transform="translate(-18.55 -24.46)"><path class="cls-1" d="M196.06,245.63a19.47,19.47,0,0,1,.32,2c.08,1.06-1.06,1.28-1.06,1.28s1,1,1.8.41,2.32-3.91,1.81-4.55a5.3,5.3,0,0,0-2.14-1Z"/></clipPath><radialGradient id="radial-gradient-13" cx="-42.16" cy="5710.04" r="1" gradientTransform="matrix(99.75, -16.46, -3.17, -89.92, 22453.1, 513016.88)" xlink:href="#radial-gradient"/><radialGradient id="radial-gradient-14" cx="-47.74" cy="5702" r="1" gradientTransform="matrix(90.8, 0, 0, -90.8, 4505.12, 517976.87)" xlink:href="#radial-gradient-7"/><clipPath id="clip-path-16" transform="translate(-18.55 -24.46)"><path class="cls-1" d="M244.28,273.73a46.47,46.47,0,0,0,1.5-9.65,46.47,46.47,0,0,1-1.5,9.65"/></clipPath><radialGradient id="radial-gradient-15" cx="-46.99" cy="5701.48" r="1" gradientTransform="matrix(92.25, 0, 0, -92.25, 4504.19, 526191.01)" xlink:href="#radial-gradient-7"/><clipPath id="clip-path-17" transform="translate(-18.55 -24.46)"><path class="cls-1" d="M241.72,281.14c.57-1.32,1.12-2.64,1.58-4-.46,1.34-1,2.66-1.58,4"/></clipPath><radialGradient id="radial-gradient-16" cx="-47.26" cy="5701.67" r="1" gradientTransform="matrix(91.72, 0, 0, -91.72, 4504.49, 523205.78)" xlink:href="#radial-gradient-7"/><clipPath id="clip-path-18" transform="translate(-18.55 -24.46)"><path class="cls-1" d="M233.13,228.83a48.47,48.47,0,0,1,9.74,15.92A48.47,48.47,0,0,0,233.13,228.83Z"/></clipPath><radialGradient id="radial-gradient-17" cx="-47.65" cy="5701.94" r="1" gradientTransform="matrix(90.98, 0, 0, -90.98, 4505.07, 518980.85)" xlink:href="#radial-gradient-7"/><clipPath id="clip-path-19" transform="translate(-18.55 -24.46)"><path class="cls-1" d="M245.85,262.33v0Z"/></clipPath><clipPath id="clip-path-20" transform="translate(-18.55 -24.46)"><polygon class="cls-1" points="245.85 261.54 245.85 261.54 245.85 262.33 245.85 261.54"/></clipPath><radialGradient id="radial-gradient-18" cx="-15550.75" cy="16324.14" r="1" gradientTransform="matrix(0.28, 0, 0, -0.28, 4561.96, 4787.71)" xlink:href="#radial-gradient-7"/><clipPath id="clip-path-21" transform="translate(-18.55 -24.46)"><path class="cls-1" d="M219.55,236.78a0,0,0,0,0,0,0,0,0,0,0,1,0,0m-4.06-15.2c-.76,1.28-2.36,6.56-3.45,7.42a6.51,6.51,0,0,1-2,1.16l-1.58,2.43s.51,1.61.83,2.54a7.28,7.28,0,0,1,.09,2.55l2.24.44a8,8,0,0,0,1.15-1.69c.34-.75,1.31,1.16,1.4,2.64s1.32,1.79.89,2.54.59,1.8.59,1.8l.71-.22s.79.22,1.32-2a19.26,19.26,0,0,1,1.85-4.42c-.11.19-.68.67-.26-3.78.44-5.08,2-6.24,2.76-6.33s1.07,1.79,1.07,1.79a7.84,7.84,0,0,0-1.5,3.62c-.31,2.21.61,3.93,1.71,3.82a30.34,30.34,0,0,0,3.47-.77l1.17,1.3s-1.91-.22-2.75.62-1.49,3.19-2.62,3.4,0,3.3-1.38,3.7-2.28.2-3.3.84a7.69,7.69,0,0,1-4.16.44c-.33-.23-1.28-1.6-.89-2.45s.41-3.4-.83-2-.61,1.93-.61,1.93l1,2.66s.39.32-1.45.94a1.85,1.85,0,0,1-1.36.09c-.33-.13-.33-.25-.88.77-1,1.68-1.29,3.39-3.08,4.12a11,11,0,0,1-2.64.85s1.07.42.32,1a9.25,9.25,0,0,1-2.48.85l.17.85s2.41.42,2.61,2,1.48,2.13-.62,3-5.95,2.14-5.95,2.14-.2-.34-.09,2,.2,4.57.2,4.57,3.17.92,4.77-.23,3.27-4.89,5.5-6.7,3.05-1.8,5.37-1a11.17,11.17,0,0,1,5.15,3c.81,1.07-.1,3-.1,3l.52.32s.85-1.5,1.05-2,.63-.31.63-.31l.64-.53s-.2-.87-2.1-2.14a5.68,5.68,0,0,1-2.49-3.5c-.19-.41,1-1.25,1-1.25a12.13,12.13,0,0,0,3.39,3.82c2,1.26,1.29,2.41,2,3.26s2,3.19,2.62,3a1.13,1.13,0,0,0,.75-.83s-2,.1-1.39-1.39,3.18-3.08,3.3-1.9-1,1.38-.42,2.42.3,3.23,3.17,2.66,3.48-.63,3.48-.63a8.23,8.23,0,0,1-.39,3.49,7.35,7.35,0,0,1-2.42,2.34l1,2.75,1.46-1c-.63.54,0,3.08.91,5.06s1.89,3.57,1.79,4.52a6.46,6.46,0,0,0,.1,1.81,17.53,17.53,0,0,0,4.32-4.15,10.15,10.15,0,0,0,.84-1.27c.57-1.32,1.12-2.64,1.58-4a7.43,7.43,0,0,0,0-1.31l-1.74,1.49a6.17,6.17,0,0,0-.52-2.65c-.53-.63-.13-1.82-.13-1.82L242.7,275a3.93,3.93,0,0,0,1.34-.3,6,6,0,0,0,.24-1,46.1,46.1,0,0,0,1.5-9.67V264c0-.38.06-.77.07-1.13v-1.3a48.26,48.26,0,0,0-2.3-14.82c-.2-.66-.45-1.29-.68-2a48.68,48.68,0,0,0-9.74-15.92c.17.83.09,1.56-.64,1.66a3.44,3.44,0,0,1-2.7-.43l-1.69-3.5,2.64,1.78.45-.84s-7.25-6.43-10.22-7.37a6.67,6.67,0,0,0-2.06-.36,3.81,3.81,0,0,0-3.42,1.81"/></clipPath><radialGradient id="radial-gradient-19" cx="-42.12" cy="5710" r="1" gradientTransform="matrix(99.83, -16.48, -3.18, -90, 22468.35, 513445.76)" xlink:href="#radial-gradient"/><clipPath id="clip-path-22" transform="translate(-18.55 -24.46)"><path class="cls-1" d="M219.55,236.78a0,0,0,0,0,0,0,0,0,0,0,1,0,0m-4.06-15.2c-.76,1.28-2.36,6.56-3.45,7.42a6.51,6.51,0,0,1-2,1.16l-1.58,2.43s.51,1.61.83,2.54a7.55,7.55,0,0,1,.09,2.55l2.24.44a8,8,0,0,0,1.15-1.69c.34-.75,1.31,1.16,1.4,2.64s1.32,1.79.89,2.54.6,1.8.6,1.8l.7-.22s.79.22,1.32-2a19.74,19.74,0,0,1,1.85-4.42c-.11.19-.68.67-.26-3.78.44-5.08,2-6.24,2.76-6.33s1.07,1.79,1.07,1.79a7.84,7.84,0,0,0-1.5,3.62c-.31,2.22.61,3.93,1.71,3.82a30.34,30.34,0,0,0,3.47-.77l1.17,1.3s-1.91-.22-2.75.62-1.49,3.19-2.62,3.4,0,3.3-1.38,3.7-2.28.2-3.3.84a7.69,7.69,0,0,1-4.16.44c-.32-.23-1.28-1.6-.89-2.45s.41-3.4-.83-2-.61,1.93-.61,1.93l1,2.66s.39.32-1.45.94a1.85,1.85,0,0,1-1.36.09c-.33-.13-.33-.25-.88.77-1,1.68-1.29,3.39-3.08,4.12a11,11,0,0,1-2.64.85s1.07.42.32,1a9.25,9.25,0,0,1-2.48.85l.16.85s2.42.42,2.62,2,1.47,2.13-.62,3-5.95,2.14-5.95,2.14-.2-.34-.09,2,.2,4.58.2,4.58,3.17.92,4.77-.23,3.27-4.89,5.5-6.7,3.05-1.8,5.37-1a11.27,11.27,0,0,1,5.16,3c.8,1.07-.11,3-.11,3l.52.32s.85-1.5,1.05-2,.63-.31.63-.31l.64-.54s-.2-.86-2.1-2.13a5.68,5.68,0,0,1-2.49-3.5c-.19-.41,1-1.25,1-1.25a12.13,12.13,0,0,0,3.39,3.82c2,1.26,1.29,2.41,2,3.26s2,3.19,2.62,3a1.16,1.16,0,0,0,.75-.83s-2,.1-1.39-1.39,3.18-3.08,3.3-1.9-1,1.38-.42,2.42.3,3.23,3.17,2.66,3.48-.63,3.48-.63a8.23,8.23,0,0,1-.39,3.49,7.35,7.35,0,0,1-2.42,2.34l1,2.75,1.46-1c-.63.54,0,3.07.91,5.06s1.89,3.57,1.79,4.52a6.46,6.46,0,0,0,.1,1.81,17.53,17.53,0,0,0,4.32-4.15,10.15,10.15,0,0,0,.84-1.27c.57-1.32,1.12-2.64,1.58-4a6.89,6.89,0,0,0,0-1.31l-1.73,1.49a6.15,6.15,0,0,0-.52-2.65c-.53-.63-.13-1.82-.13-1.82L242.7,275a3.93,3.93,0,0,0,1.34-.3,6,6,0,0,0,.24-1,46.1,46.1,0,0,0,1.5-9.67V264c0-.38.06-.77.07-1.13v-1.3a48.26,48.26,0,0,0-2.3-14.82c-.2-.66-.45-1.29-.68-2a48.68,48.68,0,0,0-9.74-15.92c.17.83.09,1.56-.64,1.66a3.44,3.44,0,0,1-2.7-.43l-1.69-3.5,2.64,1.78.45-.84s-7.25-6.43-10.22-7.37a6.67,6.67,0,0,0-2.06-.36,3.81,3.81,0,0,0-3.42,1.81"/></clipPath><radialGradient id="radial-gradient-20" cx="-47.71" cy="5701.98" r="1" gradientTransform="matrix(90.86, 0, 0, -90.86, 4505.13, 518327.8)" xlink:href="#radial-gradient-7"/><clipPath id="clip-path-23" transform="translate(-18.55 -24.46)"><path class="cls-1" d="M244,274.7a5.73,5.73,0,0,0,.24-1,5.73,5.73,0,0,1-.24,1"/></clipPath><radialGradient id="radial-gradient-21" cx="-52.62" cy="5705.34" r="1" gradientTransform="matrix(82.38, 0, 0, -82.38, 4510.75, 470214.99)" xlink:href="#radial-gradient-7"/><radialGradient id="radial-gradient-22" cx="-46.26" cy="5714" r="1" gradientTransform="matrix(90.9, -15, -2.89, -81.95, 20866.48, 467807.39)" xlink:href="#radial-gradient"/><clipPath id="clip-path-26" transform="translate(-18.55 -24.46)"><path class="cls-1" d="M211.56,308l.26-.09-.26.09m.26-.09.14,0-.14,0m.14,0,.26-.08-.26.08m26.75-21a48.72,48.72,0,0,1-26.49,20.91A48.59,48.59,0,0,0,238.71,286.87Z"/></clipPath><radialGradient id="radial-gradient-24" cx="-47.67" cy="5701.95" r="1" gradientTransform="matrix(90.93, 0, 0, -90.93, 4505.12, 518685.27)" xlink:href="#radial-gradient-7"/><clipPath id="clip-path-27" transform="translate(-18.55 -24.46)"><path class="cls-1" d="M202.62,269.81c-2,.75-5.59,3.29-6.16,5.83s-3.8,4.23-4.35,5.3a42.88,42.88,0,0,0-1.37,7.31,17.1,17.1,0,0,1-.62,3.17s2.54,2.45,2.54,3.52,4.13,3.49,5.51,3.71a17.18,17.18,0,0,0,3.94-.65,15,15,0,0,1,4.76-.63,16.33,16.33,0,0,0,5.17.23c.58-.23-.4,2.32-.4,2.32s-1.09.84-.74,1.16,3.42,2.13,3.1,3.84a8.11,8.11,0,0,1-2.44,3.07,48.72,48.72,0,0,0,27.15-21.12,4.48,4.48,0,0,0,.39-.85,19.67,19.67,0,0,1-2.24,2,7.43,7.43,0,0,1-1.49.64,1.87,1.87,0,0,0-.07-1.9c-.63-.86-2.9-8.91-3.4-10.07a37,37,0,0,0-1.88-3.38l-6.39-.55s-1.68,2-3.28,2.12-6.49-2.42-6.35-3.61,1.22-2.84.41-2.95l-.23,0c-1.65,0-9.66.79-11.56,1.5"/></clipPath><radialGradient id="radial-gradient-25" cx="-42.13" cy="5710.01" r="1" gradientTransform="matrix(99.82, -16.48, -3.18, -89.98, 22465.76, 513373.01)" xlink:href="#radial-gradient"/><clipPath id="clip-path-28" transform="translate(-18.55 -24.46)"><path class="cls-1" d="M202.62,269.81c-2,.75-5.59,3.3-6.16,5.83s-3.8,4.23-4.35,5.3a42.88,42.88,0,0,0-1.37,7.31,16,16,0,0,1-.62,3.16h0c.06.06,2.54,2.46,2.54,3.52s4.13,3.48,5.51,3.7a16.47,16.47,0,0,0,3.94-.64,15,15,0,0,1,4.76-.63,16,16,0,0,0,5.17.22c.58-.22-.4,2.33-.4,2.33s-1.09.84-.74,1.16,3.42,2.13,3.1,3.84a8.21,8.21,0,0,1-2.44,3.07,48.72,48.72,0,0,0,27.15-21.12,4.33,4.33,0,0,0,.39-.85h0a19.2,19.2,0,0,1-2.24,2,7.43,7.43,0,0,1-1.49.64,1.89,1.89,0,0,0-.07-1.9c-.63-.86-2.9-8.91-3.4-10.07a37.63,37.63,0,0,0-1.88-3.39l-6.39-.54s-1.68,2-3.28,2.12-6.49-2.42-6.35-3.61,1.23-2.84.41-2.95h-.23c-1.65,0-9.66.78-11.56,1.49"/></clipPath><radialGradient id="radial-gradient-26" cx="-47.67" cy="5701.95" r="1" gradientTransform="matrix(90.93, 0, 0, -90.93, 4505.12, 518700.8)" xlink:href="#radial-gradient-7"/><clipPath id="clip-path-29" transform="translate(-18.55 -24.46)"><path class="cls-1" d="M157.15,234.25h0a49.68,49.68,0,0,1,4.32-5.47,50.53,50.53,0,0,0-4.32,5.46m4.32-5.46.32-.35-.32.35m.32-.35.16-.17-.16.17m.16-.17.35-.37-.35.37"/></clipPath><radialGradient id="radial-gradient-27" cx="-47.76" cy="5702.01" r="1" gradientTransform="matrix(90.76, 0, 0, -90.76, 4505.03, 517767.45)" xlink:href="#radial-gradient-7"/><clipPath id="clip-path-30" transform="translate(-18.55 -24.46)"><path class="cls-1" d="M167.31,223.37a49.23,49.23,0,0,1,4.73-3.28,49.23,49.23,0,0,0-4.73,3.28"/></clipPath><radialGradient id="radial-gradient-28" cx="-47.76" cy="5702.01" r="1" gradientTransform="matrix(90.76, 0, 0, -90.76, 4505.1, 517773.52)" xlink:href="#radial-gradient-7"/><clipPath id="clip-path-31" transform="translate(-18.55 -24.46)"><path class="cls-1" d="M163.94,226.29c.53-.49,1.07-1,1.57-1.42-.5.44-1,.93-1.57,1.42"/></clipPath><radialGradient id="radial-gradient-29" cx="-48.02" cy="5702.19" r="1" gradientTransform="matrix(90.26, 0, 0, -90.26, 4504.93, 514911.56)" xlink:href="#radial-gradient-7"/><clipPath id="clip-path-32" transform="translate(-18.55 -24.46)"><path class="cls-1" d="M167.31,223.37c-.85,1.79-2.21,4.34-2.21,4.34s.11-1.88.21-2.19a6.74,6.74,0,0,1,.2-.65c-.5.44-1,.93-1.57,1.42-.4.91-.82,1.63-1.27,1.76a.31.31,0,0,1-.37-.15,50.22,50.22,0,0,0-5.15,6.36,48.84,48.84,0,0,0-7.21,16.68c-.07.37-.14.72-.22,1.09-.19.83-.34,1.71-.49,2.58a51.43,51.43,0,0,0-.48,6.83,30.28,30.28,0,0,0,1.62,8.37c.23.52.13-1.39,0-3.3-.13-2.3-.26-4.61.2-2.64.85,3.61,1.89,10.7,4.12,12.83s5.29,7.84,5.29,7.84l.22-1.38s-.53-3.81-1.7-4.88a4.65,4.65,0,0,1-1.46-3.49c.09-.73-1.1-.22-1.1-.22s-3.35-9.73.1-7.53c3.28,2.07,3.33,4.31,3.33,4.64,0-.47.25-5.09,1.37-5.89s1.25-5.52,2.63-6.07,1.19-1.67,1.29-2.11,1.16-2,1.8-1.49a1.54,1.54,0,0,1,.54,1.3l1.89-1.4-1.48-3.29s-3.71,2.24-2.52.54a11.31,11.31,0,0,1,3.38-3s1.81.95,2.55-.13a17.34,17.34,0,0,0,1.36-2.53s-.73-2.77-1.15-4.55a35.28,35.28,0,0,1-.53-5.42s-2.34,3.62-2.34,3.27-.34-5.92-.34-5.92l-2.22,1.57s-.31,6.07-1.58,8.07a17.49,17.49,0,0,0-1.71,3.39s-.09-3.91-1.7-5.8-1.14-4.89,0-6.58,4.88-6.36,5.65-7.11,1.35-3.61,1.69-3.7,2.87-.87,2.13,2-3.62,3.51-2.58,4.56a23.27,23.27,0,0,1,2.67,4s.54.33,1.78-2.24a16.81,16.81,0,0,0,1.51-5.61l-1.28-1.49s.54-.3.12-2.55a15.22,15.22,0,0,1-.28-3.49,51.1,51.1,0,0,0-4.73,3.28"/></clipPath><radialGradient id="radial-gradient-30" cx="-42.15" cy="5710.03" r="1" gradientTransform="matrix(99.77, -16.47, -3.17, -89.94, 22457.37, 513133.76)" xlink:href="#radial-gradient"/><clipPath id="clip-path-33" transform="translate(-18.55 -24.46)"><path class="cls-1" d="M167.31,223.37c-.85,1.79-2.21,4.34-2.21,4.34s.11-1.88.21-2.19a4.65,4.65,0,0,1,.2-.65c-.5.44-1,.93-1.57,1.42-.41.91-.82,1.63-1.27,1.76a.31.31,0,0,1-.37-.15,50.22,50.22,0,0,0-5.15,6.36,48.84,48.84,0,0,0-7.21,16.68c-.07.37-.14.72-.22,1.09-.19.83-.34,1.71-.49,2.58a51.43,51.43,0,0,0-.48,6.83,30.28,30.28,0,0,0,1.62,8.37c.23.52.13-1.39,0-3.3-.13-2.3-.26-4.61.2-2.64.85,3.61,1.89,10.7,4.12,12.84s5.29,7.83,5.29,7.83l.22-1.38s-.53-3.8-1.7-4.88a4.65,4.65,0,0,1-1.46-3.49c.09-.73-1.1-.22-1.1-.22s-3.35-9.73.1-7.53c3.28,2.07,3.33,4.31,3.33,4.64,0-.47.25-5.09,1.37-5.89s1.25-5.52,2.63-6.07,1.19-1.67,1.29-2.11,1.17-2,1.8-1.49a1.54,1.54,0,0,1,.54,1.3l1.89-1.4-1.48-3.29s-3.71,2.24-2.52.54a11.31,11.31,0,0,1,3.38-3s1.81.95,2.55-.13a17.34,17.34,0,0,0,1.36-2.53s-.73-2.77-1.15-4.55a35.28,35.28,0,0,1-.53-5.42s-2.34,3.62-2.34,3.27-.34-5.92-.34-5.92l-2.22,1.57s-.31,6.07-1.58,8.07a17.49,17.49,0,0,0-1.71,3.39s-.09-3.91-1.69-5.8-1.15-4.89,0-6.58,4.87-6.36,5.64-7.11,1.35-3.6,1.69-3.7,2.87-.87,2.13,2-3.62,3.51-2.58,4.56a23.27,23.27,0,0,1,2.67,4s.53.33,1.78-2.24a16.81,16.81,0,0,0,1.51-5.61l-1.28-1.49s.54-.3.12-2.55a14.55,14.55,0,0,1-.27-3.49,51.24,51.24,0,0,0-4.74,3.28"/></clipPath><radialGradient id="radial-gradient-31" cx="-47.69" cy="5701.97" r="1" gradientTransform="matrix(90.89, 0, 0, -90.89, 4505.12, 518480.64)" xlink:href="#radial-gradient-7"/><clipPath id="clip-path-34" transform="translate(-18.55 -24.46)"><path class="cls-1" d="M158.64,273.73a10.43,10.43,0,0,0,1.05,1.27,5.77,5.77,0,0,1,.94,1.71l1.38-.11.23,1.48,1.89.65s.12-1.61-1-2.13-2.48-2.33-3-2.66a2,2,0,0,0-.94-.21h-.54"/></clipPath><radialGradient id="radial-gradient-32" cx="-42.25" cy="5710.13" r="1" gradientTransform="matrix(99.53, -16.43, -3.17, -89.72, 22413.14, 511875.21)" xlink:href="#radial-gradient"/><clipPath id="clip-path-35" transform="translate(-18.55 -24.46)"><path class="cls-1" d="M158.64,273.73a10.43,10.43,0,0,0,1.05,1.27,5.76,5.76,0,0,1,.94,1.7l1.38-.1.23,1.48,1.89.65s.12-1.61-1-2.13-2.48-2.33-3-2.66a2,2,0,0,0-.94-.21h-.54"/></clipPath><radialGradient id="radial-gradient-33" cx="-47.73" cy="5701.99" r="1" gradientTransform="matrix(90.81, 0, 0, -90.81, 4505.01, 518057.71)" xlink:href="#radial-gradient-7"/><clipPath id="clip-path-36" transform="translate(-18.55 -24.46)"><path class="cls-1" d="M172.2,250.18a29.89,29.89,0,0,0-2.23,3c-.1.43,2,1.6,2,1.6l1.47-1.08-1.24-3.81Z"/></clipPath><radialGradient id="radial-gradient-34" cx="-42.13" cy="5710.01" r="1" gradientTransform="matrix(99.82, -16.48, -3.18, -89.98, 22466.29, 513386.49)" xlink:href="#radial-gradient"/><radialGradient id="radial-gradient-35" cx="-47.52" cy="5701.85" r="1" gradientTransform="matrix(91.22, 0, 0, -91.22, 4505.18, 520352.84)" xlink:href="#radial-gradient-7"/><clipPath id="clip-path-38" transform="translate(-18.55 -24.46)"><path class="cls-1" d="M159.39,271.7v0Z"/></clipPath><radialGradient id="radial-gradient-36" cx="-210762.96" cy="209813.34" r="1" gradientTransform="matrix(0.02, 0, 0, -0.02, 4479.06, 3319.04)" xlink:href="#radial-gradient"/><clipPath id="clip-path-39" transform="translate(-18.55 -24.46)"><path class="cls-1" d="M159.39,271.73v0Z"/></clipPath><clipPath id="clip-path-40" transform="translate(-18.55 -24.46)"><polygon class="cls-1" points="159.39 271.67 159.39 271.67 159.39 271.73 159.39 271.67"/></clipPath><radialGradient id="radial-gradient-37" cx="-239787.2" cy="169963.43" r="1" gradientTransform="matrix(0.02, 0, 0, -0.02, 4475.5, 3319.68)" xlink:href="#radial-gradient-7"/><clipPath id="clip-path-41" transform="translate(-18.55 -24.46)"><path class="cls-1" d="M166.83,299.35A47,47,0,0,0,173.7,304,47,47,0,0,1,166.83,299.35Z"/></clipPath><radialGradient id="radial-gradient-38" cx="-47.82" cy="5702.06" r="1" gradientTransform="matrix(90.64, 0, 0, -90.64, 4505.09, 517047.58)" xlink:href="#radial-gradient-7"/><clipPath id="clip-path-42" transform="translate(-18.55 -24.46)"><path class="cls-1" d="M161,290.47c1,2.23,4.71,6.88,5.85,8.87A46.27,46.27,0,0,0,173.7,304a1.35,1.35,0,0,1,.74-.78c1.58-.64,3.38-2,3.07-4.26s-.64-4.11-2.33-4.33-2.66-.44-3.62-1.37.12-2.68.12-2.68-3-1.9-4-3.48a9,9,0,0,1-1.12-2.79l-4.16-2.4s-2.64,6-1.47,8.57"/></clipPath><radialGradient id="radial-gradient-39" cx="-42.15" cy="5710.03" r="1" gradientTransform="matrix(99.78, -16.47, -3.18, -89.94, 22458.33, 513160.59)" xlink:href="#radial-gradient"/><clipPath id="clip-path-43" transform="translate(-18.55 -24.46)"><path class="cls-1" d="M161,290.47c1,2.23,4.71,6.88,5.85,8.87A46.27,46.27,0,0,0,173.7,304a1.35,1.35,0,0,1,.74-.78c1.58-.64,3.38-2,3.07-4.26s-.64-4.12-2.33-4.33-2.66-.44-3.62-1.37.12-2.68.12-2.68-3-1.9-4-3.48a9,9,0,0,1-1.12-2.79l-4.16-2.4s-2.64,6-1.47,8.57"/></clipPath><radialGradient id="radial-gradient-40" cx="-47.71" cy="5701.98" r="1" gradientTransform="matrix(90.85, 0, 0, -90.85, 4505.13, 518231.71)" xlink:href="#radial-gradient-7"/></defs><g class="cls-2"><path class="cls-3" d="M322,211.78C305.32,109.44,350.25,32,325.6,24.77,292.44,15,71,239,20,322.73c-10.18,16.7,35.36-5.49,113.2-83.35a.6.6,0,0,0-.09.13c.31-.31,4.94-4.68,7-6.51,105.45-95.35,163.45,60.48,64.84,76.6,119.58-1.18,83.39-158.07-8.42-128.58,40.49-36.84,72.87-64.88,78.82-64.35,6.36.61-17.29,39.44,16.84,131.93C313.67,306.94,355.27,328,360,328.49c11.53,1.28-24.59-34.6-38-116.71" transform="translate(-18.55 -24.46)"/></g><g class="cls-4"><polygon class="cls-5" points="221.78 248.44 225.47 247.83 225.65 252.85 221.95 253.46 221.78 248.44"/></g><g class="cls-6"><polygon class="cls-7" points="126.8 189.13 222.63 173.31 226.58 285.08 130.75 300.9 126.8 189.13"/></g><g class="cls-8"><polygon class="cls-9" points="224.48 222.35 227.29 221.88 227.82 237 225.02 237.46 224.48 222.35"/></g><g class="cls-10"><polygon class="cls-11" points="146.4 198.94 148.75 198.55 148.91 203.22 146.56 203.61 146.4 198.94"/></g><g class="cls-12"><polygon class="cls-13" points="143.69 201.84 145.38 201.56 145.45 203.62 143.76 203.9 143.69 201.84"/></g><g class="cls-14"><polygon class="cls-15" points="180.31 213.91 187.45 212.73 187.97 227.45 180.83 228.63 180.31 213.91"/></g><g class="cls-16"><rect class="cls-17" x="180.79" y="213.83" width="6.69" height="13.71"/></g><g class="cls-18"><rect class="cls-19" x="161.02" y="188.58" width="16.26" height="3.31"/></g><g class="cls-20"><polygon class="cls-21" points="157.3 188.73 178.46 185.24 179.49 214.46 158.33 217.95 157.3 188.73"/></g><g class="cls-22"><rect class="cls-23" x="158.21" y="188.58" width="20.36" height="26.02"/></g><g class="cls-24"><polygon class="cls-25" points="201.01 212.26 201.06 212.25 201.06 212.29 201.02 212.3 201.01 212.26"/></g><g class="cls-26"><rect class="cls-27" x="201.02" y="212.26" width="0.04" height="0.03"/></g><g class="cls-28"><polygon class="cls-29" points="176.55 219.32 180.87 218.61 181.11 225.47 176.79 226.19 176.55 219.32"/></g><g class="cls-28"><rect class="cls-30" x="176.77" y="219.28" width="4.13" height="6.23"/></g><g class="cls-31"><rect class="cls-32" x="225.73" y="239.62" width="1.5" height="9.65"/></g><g class="cls-33"><rect class="cls-34" x="223.17" y="252.7" width="1.58" height="3.98"/></g><g class="cls-35"><rect class="cls-36" x="214.59" y="204.36" width="9.74" height="15.92"/></g><g class="cls-37"><g class="cls-38"><polygon class="cls-39" points="227.31 237.08 227.31 237.08 227.31 237.87 227.31 237.08"/></g></g><g class="cls-40"><polygon class="cls-41" points="176.03 195.7 227.02 187.28 229.65 261.71 178.65 270.13 176.03 195.7"/></g><g class="cls-42"><rect class="cls-43" x="178.37" y="195.31" width="48.93" height="66.79"/></g><g class="cls-44"><rect class="cls-45" x="225.49" y="249.27" width="0.24" height="0.97"/></g><g class="cls-44"><polygon class="cls-46" points="225.46 249.28 225.73 249.23 225.76 250.23 225.49 250.28 225.46 249.28"/></g><g class="cls-44"><rect class="cls-45" x="225.49" y="249.27" width="0.24" height="0.97"/></g><g class="cls-47"><rect class="cls-48" x="193.01" y="262.41" width="27.15" height="21.12"/></g><g class="cls-49"><polygon class="cls-50" points="170.18 244.08 220.27 235.82 221.94 283.3 171.86 291.56 170.18 244.08"/></g><g class="cls-51"><rect class="cls-52" x="171.58" y="243.85" width="48.98" height="39.67"/></g><g class="cls-53"><rect class="cls-54" x="138.6" y="203.44" width="5.15" height="6.36"/></g><g class="cls-55"><rect class="cls-56" x="148.76" y="195.63" width="4.73" height="3.28"/></g><g class="cls-57"><rect class="cls-58" x="145.39" y="200.4" width="1.57" height="1.42"/></g><g class="cls-59"><polygon class="cls-60" points="127.95 196 154.79 191.57 157.2 259.7 130.35 264.13 127.95 196"/></g><g class="cls-61"><rect class="cls-62" x="130.21" y="195.63" width="24.72" height="64.44"/></g><g class="cls-63"><polygon class="cls-64" points="139.92 249.29 145.67 248.34 145.88 254.24 140.13 255.19 139.92 249.29"/></g><g class="cls-65"><rect class="cls-66" x="140.09" y="249.26" width="5.61" height="5.01"/></g><g class="cls-67"><polygon class="cls-68" points="151.15 225.44 154.91 224.82 155.1 230.27 151.35 230.89 151.15 225.44"/></g><g class="cls-67"><rect class="cls-69" x="151.33" y="225.41" width="3.61" height="4.89"/></g><g class="cls-70"><rect class="cls-71" x="140.84" y="247.21" height="0.03"/></g><g class="cls-72"><g class="cls-73"><polygon class="cls-74" points="140.84 247.21 140.84 247.21 140.84 247.26 140.84 247.21"/></g></g><g class="cls-75"><rect class="cls-76" x="148.28" y="274.89" width="6.88" height="4.64"/></g><g class="cls-77"><polygon class="cls-78" points="140.48 257.57 159.17 254.48 160.05 279.4 141.36 282.48 140.48 257.57"/></g><g class="cls-79"><rect class="cls-80" x="141.26" y="257.44" width="18.02" height="22.09"/></g><g class="cls-2"><path d="M443.62,120.74H432.28V60.07H452c4.56,0,7.91.17,11.69,1.89a16.94,16.94,0,0,1,10.06,15.38A17.44,17.44,0,0,1,466,91.78c-5.68,3.78-12.81,4-17.19,4h-5.16Zm0-26.21,5-6.88c2.16,0,6.36,0,9.54-2.14a9.5,9.5,0,0,0,4-7.82c0-6.71-5.24-9.28-10.23-9.28h-8.25Z" transform="translate(-18.55 -24.46)"/><path d="M534.13,120.74H521.49L505.42,94.36a70.81,70.81,0,0,1-9.28.34v26H485V60.07H504.9a35.78,35.78,0,0,1,8.51.78c9.2,2.23,12.64,9.54,12.64,15.8,0,9.72-7,13.76-9.63,15.3Zm-38-27.07L501,86.89a26.36,26.36,0,0,0,5.67-.26c5.42-1,8-4.9,8-9.28,0-6.62-5.07-9-10.83-9h-7.65Z" transform="translate(-18.55 -24.46)"/><rect x="526.25" y="35.61" width="11.34" height="60.67"/><polygon points="609.96 96.28 606 96.28 566.47 52.45 566.82 96.28 555.64 96.28 555.64 35.61 566.22 35.61 599.3 73.25 598.96 35.61 609.96 35.61 609.96 96.28"/><path d="M691.26,120.57a53.61,53.61,0,0,1-13.76,1.72c-22.77,0-35.14-14.18-35.14-31.54S655,58.52,677.25,58.52a46.71,46.71,0,0,1,16.84,2.93V71.84a27.48,27.48,0,0,0-15.9-5c-14.35,0-23.8,9.88-23.8,23.2,0,13.49,9.28,23.89,25.52,23.89a53.53,53.53,0,0,0,17-3.17Z" transform="translate(-18.55 -24.46)"/><polygon points="724.2 96.28 689.65 96.28 689.65 35.61 725.23 35.61 725.23 44.2 700.91 44.2 700.91 60.36 721.88 60.36 721.88 68.95 700.91 68.95 700.91 87.6 729.18 87.6 724.2 96.28"/><path d="M840.73,120.74H828.44l-5.59-15.12H798.71L793,120.74H781.61L806.1,60.07h11Zm-20.54-22.6L812,75.46c-.35-1-.43-1.38-.95-3.27-.6,2-.69,2.32-.94,3.09l-8.69,22.86Z" transform="translate(-18.55 -24.46)"/><polygon points="866.71 96.28 831.56 96.28 831.56 35.61 842.91 35.61 842.91 87.6 871.7 87.6 866.71 96.28"/><path d="M899.19,60.07h21.23c9.27,0,18.82,3.87,18.82,15,0,7.47-4.82,11.69-10.92,13.49,7.65,1.29,13.24,6.53,13.24,14.61a17.26,17.26,0,0,1-12.89,16.42,30.44,30.44,0,0,1-8.94,1.11H899.19ZM910.1,91.7l4.64-6.54a26.8,26.8,0,0,0,5.25-.34c5.5-1.12,8.33-4.64,8.33-8.68,0-6.36-5.41-7.73-10.74-7.73H910.1Zm0,20.79h4.64a33.83,33.83,0,0,0,6.54-.34c6.1-1,8.93-5.59,8.93-9.71a8.58,8.58,0,0,0-4.72-7.82c-3.09-1.72-7-1.89-11.61-1.89H910.1Z" transform="translate(-18.55 -24.46)"/><polygon points="973.21 96.28 938.66 96.28 938.66 35.61 974.24 35.61 974.24 44.2 949.92 44.2 949.92 60.36 970.88 60.36 970.88 68.95 949.92 68.95 949.92 87.6 978.19 87.6 973.21 96.28"/><path d="M1057.25,120.74h-12.63l-16.07-26.38a71,71,0,0,1-9.29.34v26H1008.1V60.07H1028a35.83,35.83,0,0,1,8.51.78c9.2,2.23,12.64,9.54,12.64,15.8,0,9.72-7,13.76-9.63,15.3Zm-38-27.07,4.82-6.78a26.38,26.38,0,0,0,5.67-.26c5.42-1,8-4.9,8-9.28,0-6.62-5.07-9-10.83-9h-7.65Z" transform="translate(-18.55 -24.46)"/><polygon points="1066.99 96.28 1055.73 96.28 1055.73 44.2 1037.17 44.2 1037.17 35.52 1085.46 35.52 1085.46 44.2 1066.99 44.2 1066.99 96.28"/><rect x="1124.25" y="35.61" width="11.34" height="60.67"/><rect x="1153.64" y="35.61" width="11.34" height="60.67"/><path d="M462.44,208.25c-20,0-32.57-13.76-32.57-31.72,0-17.1,12.12-32.05,32.23-32.05,19.59,0,32.31,14.18,32.31,31.62s-12,32.15-32,32.15m19.94-31.8c0-13.84-8.59-23.55-20.2-23.55-11.86,0-20.28,10.06-20.28,23.47,0,12.71,7.74,23.2,20.46,23.2,13.15,0,20-11.86,20-23.12" transform="translate(-18.55 -24.46)"/><polygon points="500.97 182.24 489.63 182.24 489.63 121.48 525.73 121.48 525.73 130.07 500.97 130.07 500.97 147 522.37 147 522.37 155.68 500.97 155.68 500.97 182.24"/><polygon points="634.88 182.24 623.63 182.24 619.41 138.07 598.96 182.24 597.76 182.24 577.48 137.81 573.26 182.24 562.53 182.24 569.14 121.57 580.65 121.57 598.79 161.44 616.66 121.57 628.01 121.57 634.88 182.24"/><path d="M698.13,208.25c-20,0-32.57-13.76-32.57-31.72,0-17.1,12.12-32.05,32.23-32.05,19.6,0,32.31,14.18,32.31,31.62s-12,32.15-32,32.15m19.94-31.8c0-13.84-8.6-23.55-20.19-23.55C686,152.9,677.6,163,677.6,176.37c0,12.71,7.73,23.2,20.45,23.2,13.15,0,20-11.86,20-23.12" transform="translate(-18.55 -24.46)"/><polygon points="779.64 182.24 775.68 182.24 736.14 138.41 736.49 182.24 725.32 182.24 725.32 121.57 735.89 121.57 768.98 159.2 768.64 121.57 779.64 121.57 779.64 182.24"/><path d="M866.69,206.7H854.4l-5.58-15.13H824.66l-5.75,15.13H807.56L832.06,146h11Zm-20.54-22.6L838,161.41c-.34-1-.43-1.37-.94-3.26-.6,2-.69,2.32-.94,3.09l-8.68,22.86Z" transform="translate(-18.55 -24.46)"/><path d="M920.84,206.53a53.52,53.52,0,0,1-13.74,1.72c-22.78,0-35.16-14.18-35.16-31.54s12.64-32.23,34.89-32.23a47,47,0,0,1,16.85,2.92v10.4a27.44,27.44,0,0,0-15.9-5c-14.35,0-23.8,9.88-23.8,23.2,0,13.49,9.28,23.89,25.52,23.89a53.31,53.31,0,0,0,17-3.18Z" transform="translate(-18.55 -24.46)"/><path d="M968,208.25c-20,0-32.57-13.76-32.57-31.72,0-17.1,12.12-32.05,32.23-32.05,19.59,0,32.31,14.18,32.31,31.62s-12,32.15-32,32.15m19.93-31.8c0-13.84-8.59-23.55-20.18-23.55-11.87,0-20.29,10.06-20.29,23.47,0,12.71,7.74,23.2,20.45,23.2,13.15,0,20-11.86,20-23.12" transform="translate(-18.55 -24.46)"/><polygon points="425.08 268.19 413.73 268.19 413.73 207.43 449.83 207.43 449.83 216.03 425.08 216.03 425.08 232.96 446.48 232.96 446.48 241.64 425.08 241.64 425.08 268.19"/><path d="M509.72,294.2c-20,0-32.58-13.75-32.58-31.71,0-17.1,12.12-32.05,32.23-32.05,19.6,0,32.32,14.17,32.32,31.62s-12,32.14-32,32.14m19.93-31.8c0-13.83-8.59-23.54-20.19-23.54-11.86,0-20.29,10.06-20.29,23.46,0,12.72,7.74,23.21,20.46,23.21,13.15,0,20-11.87,20-23.13" transform="translate(-18.55 -24.46)"/><path d="M608.22,232v37.73c0,4.3-.26,9.2-3.27,14-4.73,7.73-14.18,10.48-23.37,10.48-8.68,0-15.13-2.49-19.26-5.93-6.87-5.76-7.13-13.57-7.13-18.65V232h11.35v38.08c0,8.67,4,15.72,15.29,15.72,11.86,0,15.12-8,15.12-16.76V232Z" transform="translate(-18.55 -24.46)"/><polygon points="661.79 268.19 657.83 268.19 618.3 224.36 618.64 268.19 607.47 268.19 607.47 207.52 618.04 207.52 651.13 245.16 650.79 207.52 661.79 207.52 661.79 268.19"/><path d="M698.39,232h20.45c5.33,0,11.36.51,17.54,3.6C747,240.92,751.5,251.75,751.5,262c0,10.65-4.63,21.48-15.46,27.07-6.54,3.35-12.21,3.61-17.45,3.61h-20.2Zm11.18,52.24h7.73c5,0,10.49-.51,15.73-5.15,4.73-4.13,6.53-10.49,6.53-16.76,0-6-1.8-11.95-6.1-16.07-5.42-5.24-12.2-5.59-17.44-5.59h-6.45Z" transform="translate(-18.55 -24.46)"/><path d="M815.88,292.66H803.6L798,277.53H773.86l-5.76,15.13H756.76L781.26,232h11Zm-20.53-22.61-8.17-22.68c-.34-1-.43-1.38-.94-3.27-.61,2-.69,2.32-1,3.1l-8.68,22.85Z" transform="translate(-18.55 -24.46)"/><polygon points="824.42 268.19 813.16 268.19 813.16 216.12 794.6 216.12 794.6 207.43 842.9 207.43 842.9 216.12 824.42 216.12 824.42 268.19"/><rect x="852.28" y="207.52" width="11.34" height="60.67"/><path d="M928.58,294.2c-20,0-32.57-13.75-32.57-31.71,0-17.1,12.11-32.05,32.22-32.05,19.6,0,32.32,14.17,32.32,31.62s-12,32.14-32,32.14m19.94-31.8c0-13.83-8.6-23.54-20.2-23.54-11.86,0-20.27,10.06-20.27,23.46,0,12.72,7.72,23.21,20.45,23.21,13.14,0,20-11.87,20-23.13" transform="translate(-18.55 -24.46)"/><polygon points="1010.08 268.19 1006.13 268.19 966.6 224.36 966.94 268.19 955.77 268.19 955.77 207.52 966.35 207.52 999.42 245.16 999.08 207.52 1010.08 207.52 1010.08 268.19"/></g></svg>